<svg width="900" height="900" viewBox="0 0 900 900" fill="none" xmlns="http://www.w3.org/2000/svg">
  <defs>
    <linearGradient id="steadSky" x1="450" y1="0" x2="450" y2="357" gradientUnits="userSpaceOnUse">
      <stop stop-color="#D8E7D3"/>
      <stop offset="1" stop-color="#B8CFA2"/>
    </linearGradient>
    <linearGradient id="steadField" x1="450" y1="329" x2="450" y2="900" gradientUnits="userSpaceOnUse">
      <stop stop-color="#7A985A"/>
      <stop offset="1" stop-color="#415B35"/>
    </linearGradient>
  </defs>
  <rect width="900" height="900" fill="url(#steadSky)"/>
  <circle cx="742" cy="152" r="44" fill="#F7E3A5"/>
  <path d="M0 330C144 286 256 281 390 291C523 302 660 350 786 334C844 327 882 311 900 301V900H0V330Z" fill="url(#steadField)"/>
  <path d="M0 454C168 415 324 413 475 426C626 439 769 485 900 469V900H0V454Z" fill="#567246"/>
  <path d="M161 484H347L324 886H143L161 484Z" fill="#476154"/>
  <path d="M189 509H319L299 859H172L189 509Z" fill="#6A897B"/>
  <path d="M382 453H580L674 886H288L382 453Z" fill="#8C663A"/>
  <path d="M409 474H555V603H409V474Z" fill="#F0E7CC"/>
  <path d="M468 453L581 534H355L468 453Z" fill="#6A4A2A"/>
  <path d="M622 507H771L733 886H587L622 507Z" fill="#A17845"/>
  <path d="M0 900H900V785C750 758 642 748 557 748C383 748 234 799 140 900H0Z" fill="#5B4327"/>
</svg>
