<svg width="900" height="900" viewBox="0 0 900 900" fill="none" xmlns="http://www.w3.org/2000/svg">
  <defs>
    <linearGradient id="coopSky" x1="450" y1="0" x2="450" y2="336" gradientUnits="userSpaceOnUse">
      <stop stop-color="#EEE5C9"/>
      <stop offset="1" stop-color="#D3C889"/>
    </linearGradient>
    <linearGradient id="coopGround" x1="450" y1="433" x2="450" y2="900" gradientUnits="userSpaceOnUse">
      <stop stop-color="#A47F46"/>
      <stop offset="1" stop-color="#6F532D"/>
    </linearGradient>
  </defs>
  <rect width="900" height="900" fill="url(#coopSky)"/>
  <circle cx="698" cy="148" r="42" fill="#F9E3A7"/>
  <rect y="337" width="900" height="563" fill="url(#coopGround)"/>
  <rect x="83" y="220" width="734" height="391" rx="34" fill="#D9C48C"/>
  <rect x="114" y="251" width="672" height="330" rx="24" fill="#FAF2D6"/>
  <path d="M114 336H786" stroke="#CFB77E" stroke-width="14"/>
  <path d="M114 426H786" stroke="#CFB77E" stroke-width="14"/>
  <path d="M114 516H786" stroke="#CFB77E" stroke-width="14"/>
  <ellipse cx="230" cy="669" rx="119" ry="96" fill="#F4EEE1"/>
  <ellipse cx="453" cy="693" rx="137" ry="109" fill="#F5EEE2"/>
  <ellipse cx="683" cy="663" rx="113" ry="92" fill="#F4EEE1"/>
  <circle cx="273" cy="628" r="17" fill="#C83E2E"/>
  <circle cx="505" cy="646" r="18" fill="#C83E2E"/>
  <circle cx="722" cy="625" r="16" fill="#C83E2E"/>
  <path d="M247 628C256 610 274 603 290 605C311 607 330 623 333 645C338 677 314 703 287 706C252 711 224 685 224 649C224 641 229 631 247 628Z" fill="#F7F0E2"/>
  <path d="M479 648C490 627 511 618 529 621C553 624 573 642 576 667C581 701 554 730 523 733C485 737 454 709 454 669C454 660 459 650 479 648Z" fill="#F7F0E2"/>
  <path d="M704 625C713 608 731 601 748 603C769 606 788 622 791 644C795 674 772 699 744 702C710 706 682 681 682 647C682 640 687 629 704 625Z" fill="#F7F0E2"/>
  <path d="M0 900H900V785C753 766 638 757 555 757C388 757 228 806 140 900H0Z" fill="#5F4728"/>
</svg>
